<?xml version="1.0" encoding="UTF-8" standalone="no"?>
<svg width="609.247mm" height="25.4mm"
 xmlns="http://www.w3.org/2000/svg" xmlns:xlink="http://www.w3.org/1999/xlink"  version="1.2" baseProfile="tiny">
<title>Qt SVG Document</title>
<desc>Generated with Qt</desc>
<defs>
</defs>
<g fill="none" stroke="black" stroke-width="1" fill-rule="evenodd" stroke-linecap="square" stroke-linejoin="bevel" >

<g fill="none" stroke="#000000" stroke-opacity="1" stroke-width="1" stroke-linecap="square" stroke-linejoin="bevel" transform="matrix(1,0,0,1,0,0)"
font-family="Ubuntu" font-size="11" font-weight="400" font-style="normal" 
>
</g>

<g fill="none" stroke="#000000" stroke-opacity="1" stroke-width="1" stroke-linecap="square" stroke-linejoin="bevel" transform="matrix(1,0,0,1,0,0)"
font-family="Ubuntu" font-size="11" font-weight="400" font-style="normal" 
>
</g>

<g fill="none" stroke="#000000" stroke-opacity="1" stroke-width="1" stroke-linecap="square" stroke-linejoin="bevel" transform="matrix(1.99945,0,0,1.99945,0.00319912,71.9802)"
font-family="Ubuntu" font-size="11" font-weight="400" font-style="normal" 
>
</g>

<g fill="#ffffff" fill-opacity="1" stroke="none" transform="matrix(1.99945,0,0,1.99945,0.00319912,71.9802)"
font-family="Ubuntu" font-size="11" font-weight="400" font-style="normal" 
>
<rect x="-0.0016" y="-36" width="863.738" height="36"/>
</g>

<g fill="none" stroke="#000000" stroke-opacity="1" stroke-width="1" stroke-linecap="square" stroke-linejoin="bevel" transform="matrix(1.99945,0,0,1.99945,0.00319912,71.9802)"
font-family="Ubuntu" font-size="11" font-weight="400" font-style="normal" 
>
</g>

<g fill="none" stroke="#000000" stroke-opacity="1" stroke-width="1" stroke-linecap="square" stroke-linejoin="bevel" transform="matrix(1.99945,0,0,1.99945,0.00319912,71.9802)"
font-family="Ubuntu" font-size="11" font-weight="400" font-style="normal" 
>
</g>

<g fill="none" stroke="#000000" stroke-opacity="1" stroke-width="1" stroke-linecap="square" stroke-linejoin="bevel" transform="matrix(1.99945,0,0,1.99945,0.00319912,71.9802)"
font-family="Ubuntu" font-size="11" font-weight="400" font-style="normal" 
>
</g>

<g fill="none" stroke="#000000" stroke-opacity="1" stroke-width="1" stroke-linecap="square" stroke-linejoin="bevel" transform="matrix(1.99945,0,0,1.99945,0.00319912,71.9802)"
font-family="Ubuntu" font-size="11" font-weight="400" font-style="normal" 
>
</g>

<g fill="none" stroke="#000000" stroke-opacity="1" stroke-width="1" stroke-linecap="square" stroke-linejoin="round" transform="matrix(1.99945,0,0,1.99945,0.00319912,71.9802)"
font-family="Ubuntu" font-size="11" font-weight="400" font-style="normal" 
>
<ellipse cx="690.85" cy="-18" rx="172.386" ry="17.5"/>
</g>

<g fill="none" stroke="#000000" stroke-opacity="1" stroke-width="1" stroke-linecap="square" stroke-linejoin="bevel" transform="matrix(1.99945,0,0,1.99945,0.00319912,71.9802)"
font-family="Ubuntu" font-size="11" font-weight="400" font-style="normal" 
>
</g>

<g fill="none" stroke="#000000" stroke-opacity="1" stroke-width="1" stroke-linecap="square" stroke-linejoin="bevel" transform="matrix(1.99945,0,0,1.99945,1187.27,21.9939)"
font-family="Ubuntu" font-size="11" font-weight="400" font-style="normal" 
>
</g>

<g fill="none" stroke="#000000" stroke-opacity="1" stroke-width="1" stroke-linecap="square" stroke-linejoin="bevel" transform="matrix(1.99945,0,0,1.99945,1187.27,21.9939)"
font-family="sans" font-size="11" font-weight="100" font-style="normal" 
>
</g>

<g fill="#000000" fill-opacity="1" stroke="#000000" stroke-opacity="1" stroke-width="1" stroke-linecap="square" stroke-linejoin="round" transform="matrix(1.99945,0,0,1.99945,1187.27,21.9939)"
font-family="sans" font-size="11" font-weight="100" font-style="normal" 
>
<path vector-effect="none" fill-rule="nonzero" d="M2.79688,2.98438 L3.70313,2.98438 L0.90625,12.0156 L0,12.0156 L2.79688,2.98438 M5.70313,10.0938 L5.70313,13.2813 L4.70313,13.2813 L4.70313,4.98438 L5.70313,4.98438 L5.70313,5.89063 C5.90104,5.53646 6.15885,5.27344 6.47656,5.10156 C6.79427,4.92969 7.17708,4.84375 7.625,4.84375 C8.35417,4.84375 8.94531,5.13281 9.39844,5.71094 C9.85156,6.28906 10.0781,7.05208 10.0781,8 C10.0781,8.94792 9.85156,9.71094 9.39844,10.2891 C8.94531,10.8672 8.35417,11.1563 7.625,11.1563 C7.17708,11.1563 6.79427,11.0703 6.47656,10.8984 C6.15885,10.7266 5.90104,10.4583 5.70313,10.0938 M9.0625,8 C9.0625,7.27083 8.91146,6.70052 8.60938,6.28906 C8.30729,5.8776 7.89583,5.67188 7.375,5.67188 C6.85417,5.67188 6.44531,5.8776 6.14844,6.28906 C5.85156,6.70052 5.70313,7.27083 5.70313,8 C5.70313,8.72917 5.85156,9.29948 6.14844,9.71094 C6.44531,10.1224 6.85417,10.3281 7.375,10.3281 C7.89583,10.3281 8.30729,10.1224 8.60938,9.71094 C8.91146,9.29948 9.0625,8.72917 9.0625,8 M15.1875,5.90625 C15.0833,5.84375 14.9661,5.79688 14.8359,5.76563 C14.7057,5.73438 14.5625,5.71875 14.4063,5.71875 C13.8438,5.71875 13.4141,5.90104 13.1172,6.26563 C12.8203,6.63021 12.6719,7.15104 12.6719,7.82813 L12.6719,11 L11.6719,11 L11.6719,4.98438 L12.6719,4.98438 L12.6719,5.92188 C12.8698,5.55729 13.1354,5.28646 13.4688,5.10938 C13.8021,4.93229 14.2083,4.84375 14.6875,4.84375 C14.7604,4.84375 14.8359,4.84635 14.9141,4.85156 C14.9922,4.85677 15.0833,4.86979 15.1875,4.89063 L15.1875,5.90625 M18.5625,5.67188 C18.0313,5.67188 17.612,5.88021 17.3047,6.29688 C16.9974,6.71354 16.8438,7.28125 16.8438,8 C16.8438,8.71875 16.9948,9.28385 17.2969,9.69531 C17.599,10.1068 18.0208,10.3125 18.5625,10.3125 C19.0833,10.3125 19.4974,10.1068 19.8047,9.69531 C20.112,9.28385 20.2656,8.71875 20.2656,8 C20.2656,7.28125 20.112,6.71354 19.8047,6.29688 C19.4974,5.88021 19.0833,5.67188 18.5625,5.67188 M18.5625,4.84375 C19.4167,4.84375 20.0885,5.1224 20.5781,5.67969 C21.0677,6.23698 21.3125,7.01042 21.3125,8 C21.3125,8.97917 21.0677,9.75 20.5781,10.3125 C20.0885,10.875 19.4167,11.1563 18.5625,11.1563 C17.6979,11.1563 17.0208,10.875 16.5313,10.3125 C16.0417,9.75 15.7969,8.97917 15.7969,8 C15.7969,7.01042 16.0417,6.23698 16.5313,5.67969 C17.0208,5.1224 17.6979,4.84375 18.5625,4.84375 M27.2656,5.21875 L27.2656,6.14063 C26.9948,5.98438 26.7188,5.86719 26.4375,5.78906 C26.1563,5.71094 25.8698,5.67188 25.5781,5.67188 C24.9427,5.67188 24.4479,5.875 24.0938,6.28125 C23.7396,6.6875 23.5625,7.26042 23.5625,8 C23.5625,8.72917 23.7396,9.29688 24.0938,9.70313 C24.4479,10.1094 24.9427,10.3125 25.5781,10.3125 C25.8698,10.3125 26.1563,10.276 26.4375,10.2031 C26.7188,10.1302 26.9948,10.0156 27.2656,9.85938 L27.2656,10.7656 C26.9948,10.901 26.7109,11 26.4141,11.0625 C26.1172,11.125 25.8021,11.1563 25.4688,11.1563 C24.5625,11.1563 23.8438,10.8724 23.3125,10.3047 C22.7813,9.73698 22.5156,8.96875 22.5156,8 C22.5156,7.02083 22.7839,6.25 23.3203,5.6875 C23.8568,5.125 24.5938,4.84375 25.5313,4.84375 C25.8438,4.84375 26.1432,4.875 26.4297,4.9375 C26.7161,5 26.9948,5.09375 27.2656,5.21875 M34.1406,7.75 L34.1406,8.23438 L29.5938,8.23438 C29.6354,8.91146 29.8385,9.42708 30.2031,9.78125 C30.5677,10.1354 31.0781,10.3125 31.7344,10.3125 C32.1198,10.3125 32.4896,10.2656 32.8438,10.1719 C33.1979,10.0781 33.5521,9.94271 33.9063,9.76563 L33.9063,10.6875 C33.5521,10.8438 33.1875,10.9609 32.8125,11.0391 C32.4375,11.1172 32.0625,11.1563 31.6875,11.1563 C30.7188,11.1563 29.9557,10.8776 29.3984,10.3203 C28.8411,9.76302 28.5625,9.00521 28.5625,8.04688 C28.5625,7.06771 28.8281,6.28906 29.3594,5.71094 C29.8906,5.13281 30.6094,4.84375 31.5156,4.84375 C32.3177,4.84375 32.9557,5.10417 33.4297,5.625 C33.9036,6.14583 34.1406,6.85417 34.1406,7.75 M33.1406,7.45313 C33.1406,6.91146 32.9922,6.47917 32.6953,6.15625 C32.3984,5.83333 32.0052,5.67188 31.5156,5.67188 C30.9635,5.67188 30.5234,5.82813 30.1953,6.14063 C29.8672,6.45313 29.6771,6.89063 29.625,7.45313 L33.1406,7.45313 M39.5938,5.15625 L39.5938,6.09375 C39.3125,5.94792 39.0208,5.84115 38.7188,5.77344 C38.4167,5.70573 38.1042,5.67188 37.7813,5.67188 C37.2917,5.67188 36.9245,5.7474 36.6797,5.89844 C36.4349,6.04948 36.3125,6.27083 36.3125,6.5625 C36.3125,6.79167 36.401,6.97135 36.5781,7.10156 C36.7552,7.23177 37.1094,7.35938 37.6406,7.48438 L37.9688,7.5625 C38.6771,7.70833 39.1771,7.91927 39.4688,8.19531 C39.7604,8.47135 39.9063,8.85417 39.9063,9.34375 C39.9063,9.89583 39.6875,10.3359 39.25,10.6641 C38.8125,10.9922 38.2031,11.1563 37.4219,11.1563 C37.099,11.1563 36.763,11.125 36.4141,11.0625 C36.0651,11 35.6979,10.9063 35.3125,10.7813 L35.3125,9.76563 C35.6771,9.95313 36.0365,10.0938 36.3906,10.1875 C36.7448,10.2813 37.099,10.3281 37.4531,10.3281 C37.9115,10.3281 38.2656,10.2474 38.5156,10.0859 C38.7656,9.92448 38.8906,9.70313 38.8906,9.42188 C38.8906,9.15104 38.8021,8.94271 38.625,8.79688 C38.4479,8.65104 38.0521,8.51563 37.4375,8.39063 L37.0938,8.29688 C36.4792,8.17188 36.0365,7.97656 35.7656,7.71094 C35.4948,7.44531 35.3594,7.07813 35.3594,6.60938 C35.3594,6.04688 35.5599,5.61198 35.9609,5.30469 C36.362,4.9974 36.9323,4.84375 37.6719,4.84375 C38.0365,4.84375 38.3802,4.86979 38.7031,4.92188 C39.026,4.97396 39.3229,5.05208 39.5938,5.15625 M45.3125,5.15625 L45.3125,6.09375 C45.0313,5.94792 44.7396,5.84115 44.4375,5.77344 C44.1354,5.70573 43.8229,5.67188 43.5,5.67188 C43.0104,5.67188 42.6432,5.7474 42.3984,5.89844 C42.1536,6.04948 42.0313,6.27083 42.0313,6.5625 C42.0313,6.79167 42.1198,6.97135 42.2969,7.10156 C42.474,7.23177 42.8281,7.35938 43.3594,7.48438 L43.6875,7.5625 C44.3958,7.70833 44.8958,7.91927 45.1875,8.19531 C45.4792,8.47135 45.625,8.85417 45.625,9.34375 C45.625,9.89583 45.4063,10.3359 44.9688,10.6641 C44.5313,10.9922 43.9219,11.1563 43.1406,11.1563 C42.8177,11.1563 42.4818,11.125 42.1328,11.0625 C41.7839,11 41.4167,10.9063 41.0313,10.7813 L41.0313,9.76563 C41.3958,9.95313 41.7552,10.0938 42.1094,10.1875 C42.4635,10.2813 42.8177,10.3281 43.1719,10.3281 C43.6302,10.3281 43.9844,10.2474 44.2344,10.0859 C44.4844,9.92448 44.6094,9.70313 44.6094,9.42188 C44.6094,9.15104 44.5208,8.94271 44.3438,8.79688 C44.1667,8.65104 43.7708,8.51563 43.1563,8.39063 L42.8125,8.29688 C42.1979,8.17188 41.7552,7.97656 41.4844,7.71094 C41.2135,7.44531 41.0781,7.07813 41.0781,6.60938 C41.0781,6.04688 41.2786,5.61198 41.6797,5.30469 C42.0807,4.9974 42.651,4.84375 43.3906,4.84375 C43.7552,4.84375 44.099,4.86979 44.4219,4.92188 C44.7448,4.97396 45.0417,5.05208 45.3125,5.15625 M49.5313,5.67188 C49,5.67188 48.5807,5.88021 48.2734,6.29688 C47.9661,6.71354 47.8125,7.28125 47.8125,8 C47.8125,8.71875 47.9635,9.28385 48.2656,9.69531 C48.5677,10.1068 48.9896,10.3125 49.5313,10.3125 C50.0521,10.3125 50.4661,10.1068 50.7734,9.69531 C51.0807,9.28385 51.2344,8.71875 51.2344,8 C51.2344,7.28125 51.0807,6.71354 50.7734,6.29688 C50.4661,5.88021 50.0521,5.67188 49.5313,5.67188 M49.5313,4.84375 C50.3854,4.84375 51.0573,5.1224 51.5469,5.67969 C52.0365,6.23698 52.2813,7.01042 52.2813,8 C52.2813,8.97917 52.0365,9.75 51.5469,10.3125 C51.0573,10.875 50.3854,11.1563 49.5313,11.1563 C48.6667,11.1563 47.9896,10.875 47.5,10.3125 C47.0104,9.75 46.7656,8.97917 46.7656,8 C46.7656,7.01042 47.0104,6.23698 47.5,5.67969 C47.9896,5.1224 48.6667,4.84375 49.5313,4.84375 M57.3906,5.90625 C57.2865,5.84375 57.1693,5.79688 57.0391,5.76563 C56.9089,5.73438 56.7656,5.71875 56.6094,5.71875 C56.0469,5.71875 55.6172,5.90104 55.3203,6.26563 C55.0234,6.63021 54.875,7.15104 54.875,7.82813 L54.875,11 L53.875,11 L53.875,4.98438 L54.875,4.98438 L54.875,5.92188 C55.0729,5.55729 55.3385,5.28646 55.6719,5.10938 C56.0052,4.93229 56.4115,4.84375 56.8906,4.84375 C56.9635,4.84375 57.0391,4.84635 57.1172,4.85156 C57.1953,4.85677 57.2865,4.86979 57.3906,4.89063 L57.3906,5.90625 M63,12.8281 L63,13.5938 L57.2813,13.5938 L57.2813,12.8281 L63,12.8281 M67.3594,6.67188 C67.8802,6.78646 68.2865,7.01823 68.5781,7.36719 C68.8698,7.71615 69.0156,8.15104 69.0156,8.67188 C69.0156,9.46354 68.7422,10.0755 68.1953,10.5078 C67.6484,10.9401 66.875,11.1563 65.875,11.1563 C65.5313,11.1563 65.1823,11.1224 64.8281,11.0547 C64.474,10.987 64.1094,10.8906 63.7344,10.7656 L63.7344,9.70313 C64.0365,9.88021 64.3646,10.0156 64.7188,10.1094 C65.0729,10.2031 65.4479,10.25 65.8438,10.25 C66.5208,10.25 67.0365,10.1146 67.3906,9.84375 C67.7448,9.57292 67.9219,9.18229 67.9219,8.67188 C67.9219,8.19271 67.7578,7.82031 67.4297,7.55469 C67.1016,7.28906 66.6406,7.15625 66.0469,7.15625 L65.1094,7.15625 L65.1094,6.26563 L66.0938,6.26563 C66.625,6.26563 67.0313,6.15885 67.3125,5.94531 C67.5938,5.73177 67.7344,5.42708 67.7344,5.03125 C67.7344,4.61458 67.5885,4.29688 67.2969,4.07813 C67.0052,3.85938 66.5885,3.75 66.0469,3.75 C65.7552,3.75 65.4375,3.78125 65.0938,3.84375 C64.75,3.90625 64.375,4.00521 63.9688,4.14063 L63.9688,3.17188 C64.3854,3.05729 64.7734,2.97135 65.1328,2.91406 C65.4922,2.85677 65.8281,2.82813 66.1406,2.82813 C66.9635,2.82813 67.6172,3.01563 68.1016,3.39063 C68.5859,3.76563 68.8281,4.27604 68.8281,4.92188 C68.8281,5.35938 68.7005,5.73177 68.4453,6.03906 C68.1901,6.34635 67.8281,6.55729 67.3594,6.67188 M71.2344,10.0938 L73.0156,10.0938 L73.0156,3.96875 L71.0781,4.35938 L71.0781,3.375 L73,2.98438 L74.0938,2.98438 L74.0938,10.0938 L75.8594,10.0938 L75.8594,11 L71.2344,11 L71.2344,10.0938 M80.3594,3.6875 C79.7969,3.6875 79.375,3.96354 79.0938,4.51563 C78.8125,5.06771 78.6719,5.89583 78.6719,7 C78.6719,8.09375 78.8125,8.91667 79.0938,9.46875 C79.375,10.0208 79.7969,10.2969 80.3594,10.2969 C80.9219,10.2969 81.3438,10.0208 81.625,9.46875 C81.9063,8.91667 82.0469,8.09375 82.0469,7 C82.0469,5.89583 81.9063,5.06771 81.625,4.51563 C81.3438,3.96354 80.9219,3.6875 80.3594,3.6875 M80.3594,2.82813 C81.2552,2.82813 81.9401,3.1849 82.4141,3.89844 C82.888,4.61198 83.125,5.64583 83.125,7 C83.125,8.34375 82.888,9.3724 82.4141,10.0859 C81.9401,10.7995 81.2552,11.1563 80.3594,11.1563 C79.4635,11.1563 78.776,10.7995 78.2969,10.0859 C77.8177,9.3724 77.5781,8.34375 77.5781,7 C77.5781,5.64583 77.8177,4.61198 78.2969,3.89844 C78.776,3.1849 79.4635,2.82813 80.3594,2.82813 M88,3.92188 L85.2656,8.20313 L88,8.20313 L88,3.92188 M87.7188,2.98438 L89.0781,2.98438 L89.0781,8.20313 L90.2188,8.20313 L90.2188,9.10938 L89.0781,9.10938 L89.0781,11 L88,11 L88,9.10938 L84.375,9.10938 L84.375,8.0625 L87.7188,2.98438 M94.3281,7.1875 C93.8073,7.1875 93.401,7.32552 93.1094,7.60156 C92.8177,7.8776 92.6719,8.26042 92.6719,8.75 C92.6719,9.22917 92.8177,9.60677 93.1094,9.88281 C93.401,10.1589 93.8073,10.2969 94.3281,10.2969 C94.8385,10.2969 95.2422,10.1589 95.5391,9.88281 C95.8359,9.60677 95.9844,9.22917 95.9844,8.75 C95.9844,8.26042 95.8385,7.8776 95.5469,7.60156 C95.2552,7.32552 94.849,7.1875 94.3281,7.1875 M93.2344,6.73438 C92.776,6.61979 92.4167,6.40365 92.1563,6.08594 C91.8958,5.76823 91.7656,5.38021 91.7656,4.92188 C91.7656,4.27604 91.9922,3.76563 92.4453,3.39063 C92.8984,3.01563 93.526,2.82813 94.3281,2.82813 C95.1198,2.82813 95.7448,3.01563 96.2031,3.39063 C96.6615,3.76563 96.8906,4.27604 96.8906,4.92188 C96.8906,5.38021 96.7604,5.76823 96.5,6.08594 C96.2396,6.40365 95.8802,6.61979 95.4219,6.73438 C95.9427,6.84896 96.349,7.08333 96.6406,7.4375 C96.9323,7.79167 97.0781,8.22917 97.0781,8.75 C97.0781,9.52083 96.8411,10.1146 96.3672,10.5313 C95.8932,10.9479 95.2135,11.1563 94.3281,11.1563 C93.4427,11.1563 92.763,10.9479 92.2891,10.5313 C91.8151,10.1146 91.5781,9.52083 91.5781,8.75 C91.5781,8.22917 91.724,7.79167 92.0156,7.4375 C92.3073,7.08333 92.7135,6.84896 93.2344,6.73438 M92.8438,5.01563 C92.8438,5.43229 92.974,5.75781 93.2344,5.99219 C93.4948,6.22656 93.8594,6.34375 94.3281,6.34375 C94.7865,6.34375 95.1484,6.22656 95.4141,5.99219 C95.6797,5.75781 95.8125,5.43229 95.8125,5.01563 C95.8125,4.59896 95.6797,4.27344 95.4141,4.03906 C95.1484,3.80469 94.7865,3.6875 94.3281,3.6875 C93.8594,3.6875 93.4948,3.80469 93.2344,4.03906 C92.974,4.27344 92.8438,4.59896 92.8438,5.01563 M103.422,12.8281 L103.422,13.5938 L97.7031,13.5938 L97.7031,12.8281 L103.422,12.8281 M104.672,10.0938 L106.453,10.0938 L106.453,3.96875 L104.516,4.35938 L104.516,3.375 L106.438,2.98438 L107.531,2.98438 L107.531,10.0938 L109.297,10.0938 L109.297,11 L104.672,11 L104.672,10.0938 M113.922,6.5625 C113.443,6.5625 113.06,6.72917 112.773,7.0625 C112.487,7.39583 112.344,7.84896 112.344,8.42188 C112.344,9.00521 112.487,9.46354 112.773,9.79688 C113.06,10.1302 113.443,10.2969 113.922,10.2969 C114.411,10.2969 114.799,10.1302 115.086,9.79688 C115.372,9.46354 115.516,9.00521 115.516,8.42188 C115.516,7.84896 115.372,7.39583 115.086,7.0625 C114.799,6.72917 114.411,6.5625 113.922,6.5625 M116.078,3.15625 L116.078,4.14063 C115.807,4.01563 115.534,3.91927 115.258,3.85156 C114.982,3.78385 114.708,3.75 114.438,3.75 C113.719,3.75 113.169,3.99219 112.789,4.47656 C112.409,4.96094 112.193,5.69271 112.141,6.67188 C112.359,6.35938 112.628,6.11979 112.945,5.95313 C113.263,5.78646 113.615,5.70313 114,5.70313 C114.802,5.70313 115.438,5.94792 115.906,6.4375 C116.375,6.92708 116.609,7.58854 116.609,8.42188 C116.609,9.24479 116.365,9.90625 115.875,10.4063 C115.385,10.9063 114.734,11.1563 113.922,11.1563 C112.995,11.1563 112.286,10.7995 111.797,10.0859 C111.307,9.3724 111.063,8.34375 111.063,7 C111.063,5.72917 111.365,4.71615 111.969,3.96094 C112.573,3.20573 113.38,2.82813 114.391,2.82813 C114.661,2.82813 114.935,2.85677 115.211,2.91406 C115.487,2.97135 115.776,3.05208 116.078,3.15625 M118.641,10.0938 L120.422,10.0938 L120.422,3.96875 L118.484,4.35938 L118.484,3.375 L120.406,2.98438 L121.5,2.98438 L121.5,10.0938 L123.266,10.0938 L123.266,11 L118.641,11 L118.641,10.0938 M127.766,3.6875 C127.203,3.6875 126.781,3.96354 126.5,4.51563 C126.219,5.06771 126.078,5.89583 126.078,7 C126.078,8.09375 126.219,8.91667 126.5,9.46875 C126.781,10.0208 127.203,10.2969 127.766,10.2969 C128.328,10.2969 128.75,10.0208 129.031,9.46875 C129.313,8.91667 129.453,8.09375 129.453,7 C129.453,5.89583 129.313,5.06771 129.031,4.51563 C128.75,3.96354 128.328,3.6875 127.766,3.6875 M127.766,2.82813 C128.661,2.82813 129.346,3.1849 129.82,3.89844 C130.294,4.61198 130.531,5.64583 130.531,7 C130.531,8.34375 130.294,9.3724 129.82,10.0859 C129.346,10.7995 128.661,11.1563 127.766,11.1563 C126.87,11.1563 126.182,10.7995 125.703,10.0859 C125.224,9.3724 124.984,8.34375 124.984,7 C124.984,5.64583 125.224,4.61198 125.703,3.89844 C126.182,3.1849 126.87,2.82813 127.766,2.82813 M132.453,10.8281 L132.453,9.84375 C132.724,9.96875 133,10.0677 133.281,10.1406 C133.563,10.2135 133.839,10.25 134.109,10.25 C134.828,10.25 135.375,10.0078 135.75,9.52344 C136.125,9.03906 136.339,8.30729 136.391,7.32813 C136.182,7.63021 135.919,7.86458 135.602,8.03125 C135.284,8.19792 134.932,8.28125 134.547,8.28125 C133.745,8.28125 133.109,8.03906 132.641,7.55469 C132.172,7.07031 131.938,6.40625 131.938,5.5625 C131.938,4.73958 132.182,4.07813 132.672,3.57813 C133.161,3.07813 133.813,2.82813 134.625,2.82813 C135.552,2.82813 136.258,3.1849 136.742,3.89844 C137.227,4.61198 137.469,5.64583 137.469,7 C137.469,8.26042 137.169,9.26823 136.57,10.0234 C135.971,10.7786 135.167,11.1563 134.156,11.1563 C133.885,11.1563 133.609,11.1302 133.328,11.0781 C133.047,11.026 132.755,10.9427 132.453,10.8281 M134.625,7.4375 C135.104,7.4375 135.487,7.27083 135.773,6.9375 C136.06,6.60417 136.203,6.14583 136.203,5.5625 C136.203,4.98958 136.06,4.53385 135.773,4.19531 C135.487,3.85677 135.104,3.6875 134.625,3.6875 C134.135,3.6875 133.747,3.85677 133.461,4.19531 C133.174,4.53385 133.031,4.98958 133.031,5.5625 C133.031,6.14583 133.174,6.60417 133.461,6.9375 C133.747,7.27083 134.135,7.4375 134.625,7.4375 M141.734,7.1875 C141.214,7.1875 140.807,7.32552 140.516,7.60156 C140.224,7.8776 140.078,8.26042 140.078,8.75 C140.078,9.22917 140.224,9.60677 140.516,9.88281 C140.807,10.1589 141.214,10.2969 141.734,10.2969 C142.245,10.2969 142.648,10.1589 142.945,9.88281 C143.242,9.60677 143.391,9.22917 143.391,8.75 C143.391,8.26042 143.245,7.8776 142.953,7.60156 C142.661,7.32552 142.255,7.1875 141.734,7.1875 M140.641,6.73438 C140.182,6.61979 139.823,6.40365 139.563,6.08594 C139.302,5.76823 139.172,5.38021 139.172,4.92188 C139.172,4.27604 139.398,3.76563 139.852,3.39063 C140.305,3.01563 140.932,2.82813 141.734,2.82813 C142.526,2.82813 143.151,3.01563 143.609,3.39063 C144.068,3.76563 144.297,4.27604 144.297,4.92188 C144.297,5.38021 144.167,5.76823 143.906,6.08594 C143.646,6.40365 143.286,6.61979 142.828,6.73438 C143.349,6.84896 143.755,7.08333 144.047,7.4375 C144.339,7.79167 144.484,8.22917 144.484,8.75 C144.484,9.52083 144.247,10.1146 143.773,10.5313 C143.299,10.9479 142.62,11.1563 141.734,11.1563 C140.849,11.1563 140.169,10.9479 139.695,10.5313 C139.221,10.1146 138.984,9.52083 138.984,8.75 C138.984,8.22917 139.13,7.79167 139.422,7.4375 C139.714,7.08333 140.12,6.84896 140.641,6.73438 M140.25,5.01563 C140.25,5.43229 140.38,5.75781 140.641,5.99219 C140.901,6.22656 141.266,6.34375 141.734,6.34375 C142.193,6.34375 142.555,6.22656 142.82,5.99219 C143.086,5.75781 143.219,5.43229 143.219,5.01563 C143.219,4.59896 143.086,4.27344 142.82,4.03906 C142.555,3.80469 142.193,3.6875 141.734,3.6875 C141.266,3.6875 140.901,3.80469 140.641,4.03906 C140.38,4.27344 140.25,4.59896 140.25,5.01563 M146.422,10.8281 L146.422,9.84375 C146.693,9.96875 146.969,10.0677 147.25,10.1406 C147.531,10.2135 147.807,10.25 148.078,10.25 C148.797,10.25 149.344,10.0078 149.719,9.52344 C150.094,9.03906 150.307,8.30729 150.359,7.32813 C150.151,7.63021 149.888,7.86458 149.57,8.03125 C149.253,8.19792 148.901,8.28125 148.516,8.28125 C147.714,8.28125 147.078,8.03906 146.609,7.55469 C146.141,7.07031 145.906,6.40625 145.906,5.5625 C145.906,4.73958 146.151,4.07813 146.641,3.57813 C147.13,3.07813 147.781,2.82813 148.594,2.82813 C149.521,2.82813 150.227,3.1849 150.711,3.89844 C151.195,4.61198 151.438,5.64583 151.438,7 C151.438,8.26042 151.138,9.26823 150.539,10.0234 C149.94,10.7786 149.135,11.1563 148.125,11.1563 C147.854,11.1563 147.578,11.1302 147.297,11.0781 C147.016,11.026 146.724,10.9427 146.422,10.8281 M148.594,7.4375 C149.073,7.4375 149.456,7.27083 149.742,6.9375 C150.029,6.60417 150.172,6.14583 150.172,5.5625 C150.172,4.98958 150.029,4.53385 149.742,4.19531 C149.456,3.85677 149.073,3.6875 148.594,3.6875 C148.104,3.6875 147.716,3.85677 147.43,4.19531 C147.143,4.53385 147,4.98958 147,5.5625 C147,6.14583 147.143,6.60417 147.43,6.9375 C147.716,7.27083 148.104,7.4375 148.594,7.4375 M153.391,2.98438 L157.656,2.98438 L157.656,3.89063 L154.391,3.89063 L154.391,5.85938 C154.547,5.80729 154.703,5.76823 154.859,5.74219 C155.016,5.71615 155.172,5.70313 155.328,5.70313 C156.224,5.70313 156.932,5.94792 157.453,6.4375 C157.974,6.92708 158.234,7.58854 158.234,8.42188 C158.234,9.28646 157.966,9.95833 157.43,10.4375 C156.893,10.9167 156.135,11.1563 155.156,11.1563 C154.823,11.1563 154.482,11.1276 154.133,11.0703 C153.784,11.013 153.422,10.9271 153.047,10.8125 L153.047,9.71875 C153.37,9.89583 153.703,10.0286 154.047,10.1172 C154.391,10.2057 154.755,10.25 155.141,10.25 C155.766,10.25 156.258,10.0859 156.617,9.75781 C156.977,9.42969 157.156,8.98438 157.156,8.42188 C157.156,7.86979 156.977,7.42969 156.617,7.10156 C156.258,6.77344 155.766,6.60938 155.141,6.60938 C154.849,6.60938 154.56,6.64323 154.273,6.71094 C153.987,6.77865 153.693,6.88021 153.391,7.01563 L153.391,2.98438 M162.688,7.1875 C162.167,7.1875 161.76,7.32552 161.469,7.60156 C161.177,7.8776 161.031,8.26042 161.031,8.75 C161.031,9.22917 161.177,9.60677 161.469,9.88281 C161.76,10.1589 162.167,10.2969 162.688,10.2969 C163.198,10.2969 163.602,10.1589 163.898,9.88281 C164.195,9.60677 164.344,9.22917 164.344,8.75 C164.344,8.26042 164.198,7.8776 163.906,7.60156 C163.615,7.32552 163.208,7.1875 162.688,7.1875 M161.594,6.73438 C161.135,6.61979 160.776,6.40365 160.516,6.08594 C160.255,5.76823 160.125,5.38021 160.125,4.92188 C160.125,4.27604 160.352,3.76563 160.805,3.39063 C161.258,3.01563 161.885,2.82813 162.688,2.82813 C163.479,2.82813 164.104,3.01563 164.563,3.39063 C165.021,3.76563 165.25,4.27604 165.25,4.92188 C165.25,5.38021 165.12,5.76823 164.859,6.08594 C164.599,6.40365 164.24,6.61979 163.781,6.73438 C164.302,6.84896 164.708,7.08333 165,7.4375 C165.292,7.79167 165.438,8.22917 165.438,8.75 C165.438,9.52083 165.201,10.1146 164.727,10.5313 C164.253,10.9479 163.573,11.1563 162.688,11.1563 C161.802,11.1563 161.122,10.9479 160.648,10.5313 C160.174,10.1146 159.938,9.52083 159.938,8.75 C159.938,8.22917 160.083,7.79167 160.375,7.4375 C160.667,7.08333 161.073,6.84896 161.594,6.73438 M161.203,5.01563 C161.203,5.43229 161.333,5.75781 161.594,5.99219 C161.854,6.22656 162.219,6.34375 162.688,6.34375 C163.146,6.34375 163.508,6.22656 163.773,5.99219 C164.039,5.75781 164.172,5.43229 164.172,5.01563 C164.172,4.59896 164.039,4.27344 163.773,4.03906 C163.508,3.80469 163.146,3.6875 162.688,3.6875 C162.219,3.6875 161.854,3.80469 161.594,4.03906 C161.333,4.27344 161.203,4.59896 161.203,5.01563 M170.641,6.67188 C171.161,6.78646 171.568,7.01823 171.859,7.36719 C172.151,7.71615 172.297,8.15104 172.297,8.67188 C172.297,9.46354 172.023,10.0755 171.477,10.5078 C170.93,10.9401 170.156,11.1563 169.156,11.1563 C168.813,11.1563 168.464,11.1224 168.109,11.0547 C167.755,10.987 167.391,10.8906 167.016,10.7656 L167.016,9.70313 C167.318,9.88021 167.646,10.0156 168,10.1094 C168.354,10.2031 168.729,10.25 169.125,10.25 C169.802,10.25 170.318,10.1146 170.672,9.84375 C171.026,9.57292 171.203,9.18229 171.203,8.67188 C171.203,8.19271 171.039,7.82031 170.711,7.55469 C170.383,7.28906 169.922,7.15625 169.328,7.15625 L168.391,7.15625 L168.391,6.26563 L169.375,6.26563 C169.906,6.26563 170.313,6.15885 170.594,5.94531 C170.875,5.73177 171.016,5.42708 171.016,5.03125 C171.016,4.61458 170.87,4.29688 170.578,4.07813 C170.286,3.85938 169.87,3.75 169.328,3.75 C169.036,3.75 168.719,3.78125 168.375,3.84375 C168.031,3.90625 167.656,4.00521 167.25,4.14063 L167.25,3.17188 C167.667,3.05729 168.055,2.97135 168.414,2.91406 C168.773,2.85677 169.109,2.82813 169.422,2.82813 C170.245,2.82813 170.898,3.01563 171.383,3.39063 C171.867,3.76563 172.109,4.27604 172.109,4.92188 C172.109,5.35938 171.982,5.73177 171.727,6.03906 C171.471,6.34635 171.109,6.55729 170.641,6.67188 M174.063,2.98438 L179.219,2.98438 L179.219,3.4375 L176.297,11 L175.172,11 L177.906,3.89063 L174.063,3.89063 L174.063,2.98438 M184.297,3.92188 L181.563,8.20313 L184.297,8.20313 L184.297,3.92188 M184.016,2.98438 L185.375,2.98438 L185.375,8.20313 L186.516,8.20313 L186.516,9.10938 L185.375,9.10938 L185.375,11 L184.297,11 L184.297,9.10938 L180.672,9.10938 L180.672,8.0625 L184.016,2.98438 M190.625,3.6875 C190.063,3.6875 189.641,3.96354 189.359,4.51563 C189.078,5.06771 188.938,5.89583 188.938,7 C188.938,8.09375 189.078,8.91667 189.359,9.46875 C189.641,10.0208 190.063,10.2969 190.625,10.2969 C191.188,10.2969 191.609,10.0208 191.891,9.46875 C192.172,8.91667 192.313,8.09375 192.313,7 C192.313,5.89583 192.172,5.06771 191.891,4.51563 C191.609,3.96354 191.188,3.6875 190.625,3.6875 M190.625,2.82813 C191.521,2.82813 192.206,3.1849 192.68,3.89844 C193.154,4.61198 193.391,5.64583 193.391,7 C193.391,8.34375 193.154,9.3724 192.68,10.0859 C192.206,10.7995 191.521,11.1563 190.625,11.1563 C189.729,11.1563 189.042,10.7995 188.563,10.0859 C188.083,9.3724 187.844,8.34375 187.844,7 C187.844,5.64583 188.083,4.61198 188.563,3.89844 C189.042,3.1849 189.729,2.82813 190.625,2.82813 "/>
</g>

<g fill="none" stroke="#000000" stroke-opacity="1" stroke-width="1" stroke-linecap="square" stroke-linejoin="bevel" transform="matrix(1.99945,0,0,1.99945,1187.27,21.9939)"
font-family="sans" font-size="11" font-weight="100" font-style="normal" 
>
</g>

<g fill="none" stroke="#000000" stroke-opacity="1" stroke-width="1" stroke-linecap="square" stroke-linejoin="bevel" transform="matrix(1.99945,0,0,1.99945,1187.27,21.9939)"
font-family="Ubuntu" font-size="11" font-weight="400" font-style="normal" 
>
</g>

<g fill="none" stroke="#000000" stroke-opacity="1" stroke-width="1" stroke-linecap="square" stroke-linejoin="bevel" transform="matrix(1.99945,0,0,1.99945,0.00319912,71.9802)"
font-family="Ubuntu" font-size="11" font-weight="400" font-style="normal" 
>
</g>

<g fill="none" stroke="#000000" stroke-opacity="1" stroke-width="1" stroke-linecap="square" stroke-linejoin="bevel" transform="matrix(1.99945,0,0,1.99945,0.00319912,71.9802)"
font-family="Ubuntu" font-size="11" font-weight="400" font-style="normal" 
>
</g>

<g fill="none" stroke="#000000" stroke-opacity="1" stroke-width="1" stroke-linecap="square" stroke-linejoin="bevel" transform="matrix(1.99945,0,0,1.99945,0.00319912,71.9802)"
font-family="Ubuntu" font-size="11" font-weight="400" font-style="normal" 
>
</g>

<g fill="none" stroke="#000000" stroke-opacity="1" stroke-width="1" stroke-linecap="square" stroke-linejoin="round" transform="matrix(1.99945,0,0,1.99945,0.00319912,71.9802)"
font-family="Ubuntu" font-size="11" font-weight="400" font-style="normal" 
>
<ellipse cx="188.48" cy="-18" rx="187.982" ry="17.5"/>
</g>

<g fill="none" stroke="#000000" stroke-opacity="1" stroke-width="1" stroke-linecap="square" stroke-linejoin="bevel" transform="matrix(1.99945,0,0,1.99945,0.00319912,71.9802)"
font-family="Ubuntu" font-size="11" font-weight="400" font-style="normal" 
>
</g>

<g fill="none" stroke="#000000" stroke-opacity="1" stroke-width="1" stroke-linecap="square" stroke-linejoin="bevel" transform="matrix(1.99945,0,0,1.99945,162.075,21.9939)"
font-family="Ubuntu" font-size="11" font-weight="400" font-style="normal" 
>
</g>

<g fill="none" stroke="#000000" stroke-opacity="1" stroke-width="1" stroke-linecap="square" stroke-linejoin="bevel" transform="matrix(1.99945,0,0,1.99945,162.075,21.9939)"
font-family="sans" font-size="11" font-weight="100" font-style="normal" 
>
</g>

<g fill="#000000" fill-opacity="1" stroke="#000000" stroke-opacity="1" stroke-width="1" stroke-linecap="square" stroke-linejoin="round" transform="matrix(1.99945,0,0,1.99945,162.075,21.9939)"
font-family="sans" font-size="11" font-weight="100" font-style="normal" 
>
<path vector-effect="none" fill-rule="nonzero" d="M2.79688,2.98438 L3.70313,2.98438 L0.90625,12.0156 L0,12.0156 L2.79688,2.98438 M9.0625,5.21875 L9.0625,6.14063 C8.79167,5.98438 8.51563,5.86719 8.23438,5.78906 C7.95313,5.71094 7.66667,5.67188 7.375,5.67188 C6.73958,5.67188 6.24479,5.875 5.89063,6.28125 C5.53646,6.6875 5.35938,7.26042 5.35938,8 C5.35938,8.72917 5.53646,9.29688 5.89063,9.70313 C6.24479,10.1094 6.73958,10.3125 7.375,10.3125 C7.66667,10.3125 7.95313,10.276 8.23438,10.2031 C8.51563,10.1302 8.79167,10.0156 9.0625,9.85938 L9.0625,10.7656 C8.79167,10.901 8.50781,11 8.21094,11.0625 C7.91406,11.125 7.59896,11.1563 7.26563,11.1563 C6.35938,11.1563 5.64063,10.8724 5.10938,10.3047 C4.57813,9.73698 4.3125,8.96875 4.3125,8 C4.3125,7.02083 4.58073,6.25 5.11719,5.6875 C5.65365,5.125 6.39063,4.84375 7.32813,4.84375 C7.64063,4.84375 7.9401,4.875 8.22656,4.9375 C8.51302,5 8.79167,5.09375 9.0625,5.21875 M13.5156,7.96875 C12.724,7.96875 12.1745,8.0625 11.8672,8.25 C11.5599,8.4375 11.4063,8.75 11.4063,9.1875 C11.4063,9.53125 11.5208,9.80729 11.75,10.0156 C11.9792,10.224 12.2917,10.3281 12.6875,10.3281 C13.2396,10.3281 13.6797,10.1328 14.0078,9.74219 C14.3359,9.35156 14.5,8.83854 14.5,8.20313 L14.5,7.96875 L13.5156,7.96875 M15.4844,7.5625 L15.4844,11 L14.5,11 L14.5,10.0938 C14.2813,10.4583 14.0026,10.7266 13.6641,10.8984 C13.3255,11.0703 12.9115,11.1563 12.4219,11.1563 C11.8073,11.1563 11.3177,10.9844 10.9531,10.6406 C10.5885,10.2969 10.4063,9.83333 10.4063,9.25 C10.4063,8.57292 10.6328,8.0625 11.0859,7.71875 C11.5391,7.375 12.2188,7.20313 13.125,7.20313 L14.5,7.20313 L14.5,7.10938 C14.5,6.65104 14.3516,6.29688 14.0547,6.04688 C13.7578,5.79688 13.3385,5.67188 12.7969,5.67188 C12.4531,5.67188 12.1172,5.71354 11.7891,5.79688 C11.4609,5.88021 11.1458,6.00521 10.8438,6.17188 L10.8438,5.26563 C11.2083,5.11979 11.5625,5.01302 11.9063,4.94531 C12.25,4.8776 12.5781,4.84375 12.8906,4.84375 C13.7656,4.84375 14.4167,5.06771 14.8438,5.51563 C15.2708,5.96354 15.4844,6.64583 15.4844,7.5625 M22.2031,6.14063 C22.4531,5.69271 22.75,5.36458 23.0938,5.15625 C23.4375,4.94792 23.8438,4.84375 24.3125,4.84375 C24.9375,4.84375 25.4193,5.0625 25.7578,5.5 C26.0964,5.9375 26.2656,6.5625 26.2656,7.375 L26.2656,11 L25.2656,11 L25.2656,7.40625 C25.2656,6.82292 25.1641,6.39323 24.9609,6.11719 C24.7578,5.84115 24.4479,5.70313 24.0313,5.70313 C23.5208,5.70313 23.1172,5.8724 22.8203,6.21094 C22.5234,6.54948 22.375,7.01042 22.375,7.59375 L22.375,11 L21.375,11 L21.375,7.40625 C21.375,6.82292 21.2734,6.39323 21.0703,6.11719 C20.8672,5.84115 20.5521,5.70313 20.125,5.70313 C19.625,5.70313 19.2266,5.8724 18.9297,6.21094 C18.6328,6.54948 18.4844,7.01042 18.4844,7.59375 L18.4844,11 L17.4844,11 L17.4844,4.98438 L18.4844,4.98438 L18.4844,5.92188 C18.7031,5.54688 18.9714,5.27344 19.2891,5.10156 C19.6068,4.92969 19.9792,4.84375 20.4063,4.84375 C20.8438,4.84375 21.2161,4.95313 21.5234,5.17188 C21.8307,5.39063 22.0573,5.71354 22.2031,6.14063 M33.375,7.75 L33.375,8.23438 L28.8281,8.23438 C28.8698,8.91146 29.0729,9.42708 29.4375,9.78125 C29.8021,10.1354 30.3125,10.3125 30.9688,10.3125 C31.3542,10.3125 31.724,10.2656 32.0781,10.1719 C32.4323,10.0781 32.7865,9.94271 33.1406,9.76563 L33.1406,10.6875 C32.7865,10.8438 32.4219,10.9609 32.0469,11.0391 C31.6719,11.1172 31.2969,11.1563 30.9219,11.1563 C29.9531,11.1563 29.1901,10.8776 28.6328,10.3203 C28.0755,9.76302 27.7969,9.00521 27.7969,8.04688 C27.7969,7.06771 28.0625,6.28906 28.5938,5.71094 C29.125,5.13281 29.8438,4.84375 30.75,4.84375 C31.5521,4.84375 32.1901,5.10417 32.6641,5.625 C33.138,6.14583 33.375,6.85417 33.375,7.75 M32.375,7.45313 C32.375,6.91146 32.2266,6.47917 31.9297,6.15625 C31.6328,5.83333 31.2396,5.67188 30.75,5.67188 C30.1979,5.67188 29.7578,5.82813 29.4297,6.14063 C29.1016,6.45313 28.9115,6.89063 28.8594,7.45313 L32.375,7.45313 M38.4688,5.90625 C38.3646,5.84375 38.2474,5.79688 38.1172,5.76563 C37.987,5.73438 37.8438,5.71875 37.6875,5.71875 C37.125,5.71875 36.6953,5.90104 36.3984,6.26563 C36.1016,6.63021 35.9531,7.15104 35.9531,7.82813 L35.9531,11 L34.9531,11 L34.9531,4.98438 L35.9531,4.98438 L35.9531,5.92188 C36.151,5.55729 36.4167,5.28646 36.75,5.10938 C37.0833,4.93229 37.4896,4.84375 37.9688,4.84375 C38.0417,4.84375 38.1172,4.84635 38.1953,4.85156 C38.2734,4.85677 38.3646,4.86979 38.4688,4.89063 L38.4688,5.90625 M42.2344,7.96875 C41.4427,7.96875 40.8932,8.0625 40.5859,8.25 C40.2786,8.4375 40.125,8.75 40.125,9.1875 C40.125,9.53125 40.2396,9.80729 40.4688,10.0156 C40.6979,10.224 41.0104,10.3281 41.4063,10.3281 C41.9583,10.3281 42.3984,10.1328 42.7266,9.74219 C43.0547,9.35156 43.2188,8.83854 43.2188,8.20313 L43.2188,7.96875 L42.2344,7.96875 M44.2031,7.5625 L44.2031,11 L43.2188,11 L43.2188,10.0938 C43,10.4583 42.7214,10.7266 42.3828,10.8984 C42.0443,11.0703 41.6302,11.1563 41.1406,11.1563 C40.526,11.1563 40.0365,10.9844 39.6719,10.6406 C39.3073,10.2969 39.125,9.83333 39.125,9.25 C39.125,8.57292 39.3516,8.0625 39.8047,7.71875 C40.2578,7.375 40.9375,7.20313 41.8438,7.20313 L43.2188,7.20313 L43.2188,7.10938 C43.2188,6.65104 43.0703,6.29688 42.7734,6.04688 C42.4766,5.79688 42.0573,5.67188 41.5156,5.67188 C41.1719,5.67188 40.8359,5.71354 40.5078,5.79688 C40.1797,5.88021 39.8646,6.00521 39.5625,6.17188 L39.5625,5.26563 C39.9271,5.11979 40.2813,5.01302 40.625,4.94531 C40.9688,4.8776 41.2969,4.84375 41.6094,4.84375 C42.4844,4.84375 43.1354,5.06771 43.5625,5.51563 C43.9896,5.96354 44.2031,6.64583 44.2031,7.5625 M50.8125,12.8281 L50.8125,13.5938 L45.0938,13.5938 L45.0938,12.8281 L50.8125,12.8281 M56.7344,7.375 L56.7344,11 L55.75,11 L55.75,7.40625 C55.75,6.83333 55.6406,6.40625 55.4219,6.125 C55.2031,5.84375 54.8698,5.70313 54.4219,5.70313 C53.8906,5.70313 53.4714,5.8724 53.1641,6.21094 C52.8568,6.54948 52.7031,7.01042 52.7031,7.59375 L52.7031,11 L51.7031,11 L51.7031,4.98438 L52.7031,4.98438 L52.7031,5.92188 C52.9323,5.55729 53.2083,5.28646 53.5313,5.10938 C53.8542,4.93229 54.224,4.84375 54.6406,4.84375 C55.3281,4.84375 55.849,5.05729 56.2031,5.48438 C56.5573,5.91146 56.7344,6.54167 56.7344,7.375 M61.0469,5.67188 C60.5156,5.67188 60.0964,5.88021 59.7891,6.29688 C59.4818,6.71354 59.3281,7.28125 59.3281,8 C59.3281,8.71875 59.4792,9.28385 59.7813,9.69531 C60.0833,10.1068 60.5052,10.3125 61.0469,10.3125 C61.5677,10.3125 61.9818,10.1068 62.2891,9.69531 C62.5964,9.28385 62.75,8.71875 62.75,8 C62.75,7.28125 62.5964,6.71354 62.2891,6.29688 C61.9818,5.88021 61.5677,5.67188 61.0469,5.67188 M61.0469,4.84375 C61.901,4.84375 62.5729,5.1224 63.0625,5.67969 C63.5521,6.23698 63.7969,7.01042 63.7969,8 C63.7969,8.97917 63.5521,9.75 63.0625,10.3125 C62.5729,10.875 61.901,11.1563 61.0469,11.1563 C60.1823,11.1563 59.5052,10.875 59.0156,10.3125 C58.526,9.75 58.2813,8.97917 58.2813,8 C58.2813,7.01042 58.526,6.23698 59.0156,5.67969 C59.5052,5.1224 60.1823,4.84375 61.0469,4.84375 M69.3906,5.89063 L69.3906,2.64063 L70.375,2.64063 L70.375,11 L69.3906,11 L69.3906,10.0938 C69.1823,10.4583 68.9193,10.7266 68.6016,10.8984 C68.2839,11.0703 67.901,11.1563 67.4531,11.1563 C66.7344,11.1563 66.1458,10.8672 65.6875,10.2891 C65.2292,9.71094 65,8.94792 65,8 C65,7.05208 65.2292,6.28906 65.6875,5.71094 C66.1458,5.13281 66.7344,4.84375 67.4531,4.84375 C67.901,4.84375 68.2839,4.92969 68.6016,5.10156 C68.9193,5.27344 69.1823,5.53646 69.3906,5.89063 M66.0156,8 C66.0156,8.72917 66.1667,9.29948 66.4688,9.71094 C66.7708,10.1224 67.1823,10.3281 67.7031,10.3281 C68.224,10.3281 68.6354,10.1224 68.9375,9.71094 C69.2396,9.29948 69.3906,8.72917 69.3906,8 C69.3906,7.27083 69.2396,6.70052 68.9375,6.28906 C68.6354,5.8776 68.224,5.67188 67.7031,5.67188 C67.1823,5.67188 66.7708,5.8776 66.4688,6.28906 C66.1667,6.70052 66.0156,7.27083 66.0156,8 M77.5469,7.75 L77.5469,8.23438 L73,8.23438 C73.0417,8.91146 73.2448,9.42708 73.6094,9.78125 C73.974,10.1354 74.4844,10.3125 75.1406,10.3125 C75.526,10.3125 75.8958,10.2656 76.25,10.1719 C76.6042,10.0781 76.9583,9.94271 77.3125,9.76563 L77.3125,10.6875 C76.9583,10.8438 76.5938,10.9609 76.2188,11.0391 C75.8438,11.1172 75.4688,11.1563 75.0938,11.1563 C74.125,11.1563 73.362,10.8776 72.8047,10.3203 C72.2474,9.76302 71.9688,9.00521 71.9688,8.04688 C71.9688,7.06771 72.2344,6.28906 72.7656,5.71094 C73.2969,5.13281 74.0156,4.84375 74.9219,4.84375 C75.724,4.84375 76.362,5.10417 76.8359,5.625 C77.3099,6.14583 77.5469,6.85417 77.5469,7.75 M76.5469,7.45313 C76.5469,6.91146 76.3984,6.47917 76.1016,6.15625 C75.8047,5.83333 75.4115,5.67188 74.9219,5.67188 C74.3698,5.67188 73.9297,5.82813 73.6016,6.14063 C73.2734,6.45313 73.0833,6.89063 73.0313,7.45313 L76.5469,7.45313 M83.7344,12.8281 L83.7344,13.5938 L78.0156,13.5938 L78.0156,12.8281 L83.7344,12.8281 M88.0938,6.67188 C88.6146,6.78646 89.0208,7.01823 89.3125,7.36719 C89.6042,7.71615 89.75,8.15104 89.75,8.67188 C89.75,9.46354 89.4766,10.0755 88.9297,10.5078 C88.3828,10.9401 87.6094,11.1563 86.6094,11.1563 C86.2656,11.1563 85.9167,11.1224 85.5625,11.0547 C85.2083,10.987 84.8438,10.8906 84.4688,10.7656 L84.4688,9.70313 C84.7708,9.88021 85.099,10.0156 85.4531,10.1094 C85.8073,10.2031 86.1823,10.25 86.5781,10.25 C87.2552,10.25 87.7708,10.1146 88.125,9.84375 C88.4792,9.57292 88.6563,9.18229 88.6563,8.67188 C88.6563,8.19271 88.4922,7.82031 88.1641,7.55469 C87.8359,7.28906 87.375,7.15625 86.7813,7.15625 L85.8438,7.15625 L85.8438,6.26563 L86.8281,6.26563 C87.3594,6.26563 87.7656,6.15885 88.0469,5.94531 C88.3281,5.73177 88.4688,5.42708 88.4688,5.03125 C88.4688,4.61458 88.3229,4.29688 88.0313,4.07813 C87.7396,3.85938 87.3229,3.75 86.7813,3.75 C86.4896,3.75 86.1719,3.78125 85.8281,3.84375 C85.4844,3.90625 85.1094,4.00521 84.7031,4.14063 L84.7031,3.17188 C85.1198,3.05729 85.5078,2.97135 85.8672,2.91406 C86.2266,2.85677 86.5625,2.82813 86.875,2.82813 C87.6979,2.82813 88.3516,3.01563 88.8359,3.39063 C89.3203,3.76563 89.5625,4.27604 89.5625,4.92188 C89.5625,5.35938 89.4349,5.73177 89.1797,6.03906 C88.9245,6.34635 88.5625,6.55729 88.0938,6.67188 M91.9688,10.0938 L93.75,10.0938 L93.75,3.96875 L91.8125,4.35938 L91.8125,3.375 L93.7344,2.98438 L94.8281,2.98438 L94.8281,10.0938 L96.5938,10.0938 L96.5938,11 L91.9688,11 L91.9688,10.0938 M101.094,3.6875 C100.531,3.6875 100.109,3.96354 99.8281,4.51563 C99.5469,5.06771 99.4063,5.89583 99.4063,7 C99.4063,8.09375 99.5469,8.91667 99.8281,9.46875 C100.109,10.0208 100.531,10.2969 101.094,10.2969 C101.656,10.2969 102.078,10.0208 102.359,9.46875 C102.641,8.91667 102.781,8.09375 102.781,7 C102.781,5.89583 102.641,5.06771 102.359,4.51563 C102.078,3.96354 101.656,3.6875 101.094,3.6875 M101.094,2.82813 C101.99,2.82813 102.674,3.1849 103.148,3.89844 C103.622,4.61198 103.859,5.64583 103.859,7 C103.859,8.34375 103.622,9.3724 103.148,10.0859 C102.674,10.7995 101.99,11.1563 101.094,11.1563 C100.198,11.1563 99.5104,10.7995 99.0313,10.0859 C98.5521,9.3724 98.3125,8.34375 98.3125,7 C98.3125,5.64583 98.5521,4.61198 99.0313,3.89844 C99.5104,3.1849 100.198,2.82813 101.094,2.82813 M108.078,3.6875 C107.516,3.6875 107.094,3.96354 106.813,4.51563 C106.531,5.06771 106.391,5.89583 106.391,7 C106.391,8.09375 106.531,8.91667 106.813,9.46875 C107.094,10.0208 107.516,10.2969 108.078,10.2969 C108.641,10.2969 109.063,10.0208 109.344,9.46875 C109.625,8.91667 109.766,8.09375 109.766,7 C109.766,5.89583 109.625,5.06771 109.344,4.51563 C109.063,3.96354 108.641,3.6875 108.078,3.6875 M108.078,2.82813 C108.974,2.82813 109.659,3.1849 110.133,3.89844 C110.607,4.61198 110.844,5.64583 110.844,7 C110.844,8.34375 110.607,9.3724 110.133,10.0859 C109.659,10.7995 108.974,11.1563 108.078,11.1563 C107.182,11.1563 106.495,10.7995 106.016,10.0859 C105.536,9.3724 105.297,8.34375 105.297,7 C105.297,5.64583 105.536,4.61198 106.016,3.89844 C106.495,3.1849 107.182,2.82813 108.078,2.82813 M112.75,2.98438 L117.016,2.98438 L117.016,3.89063 L113.75,3.89063 L113.75,5.85938 C113.906,5.80729 114.063,5.76823 114.219,5.74219 C114.375,5.71615 114.531,5.70313 114.688,5.70313 C115.583,5.70313 116.292,5.94792 116.813,6.4375 C117.333,6.92708 117.594,7.58854 117.594,8.42188 C117.594,9.28646 117.326,9.95833 116.789,10.4375 C116.253,10.9167 115.495,11.1563 114.516,11.1563 C114.182,11.1563 113.841,11.1276 113.492,11.0703 C113.143,11.013 112.781,10.9271 112.406,10.8125 L112.406,9.71875 C112.729,9.89583 113.063,10.0286 113.406,10.1172 C113.75,10.2057 114.115,10.25 114.5,10.25 C115.125,10.25 115.617,10.0859 115.977,9.75781 C116.336,9.42969 116.516,8.98438 116.516,8.42188 C116.516,7.86979 116.336,7.42969 115.977,7.10156 C115.617,6.77344 115.125,6.60938 114.5,6.60938 C114.208,6.60938 113.919,6.64323 113.633,6.71094 C113.346,6.77865 113.052,6.88021 112.75,7.01563 L112.75,2.98438 M124.156,12.8281 L124.156,13.5938 L118.438,13.5938 L118.438,12.8281 L124.156,12.8281 M125.406,10.0938 L127.188,10.0938 L127.188,3.96875 L125.25,4.35938 L125.25,3.375 L127.172,2.98438 L128.266,2.98438 L128.266,10.0938 L130.031,10.0938 L130.031,11 L125.406,11 L125.406,10.0938 M134.656,6.5625 C134.177,6.5625 133.794,6.72917 133.508,7.0625 C133.221,7.39583 133.078,7.84896 133.078,8.42188 C133.078,9.00521 133.221,9.46354 133.508,9.79688 C133.794,10.1302 134.177,10.2969 134.656,10.2969 C135.146,10.2969 135.534,10.1302 135.82,9.79688 C136.107,9.46354 136.25,9.00521 136.25,8.42188 C136.25,7.84896 136.107,7.39583 135.82,7.0625 C135.534,6.72917 135.146,6.5625 134.656,6.5625 M136.813,3.15625 L136.813,4.14063 C136.542,4.01563 136.268,3.91927 135.992,3.85156 C135.716,3.78385 135.443,3.75 135.172,3.75 C134.453,3.75 133.904,3.99219 133.523,4.47656 C133.143,4.96094 132.927,5.69271 132.875,6.67188 C133.094,6.35938 133.362,6.11979 133.68,5.95313 C133.997,5.78646 134.349,5.70313 134.734,5.70313 C135.536,5.70313 136.172,5.94792 136.641,6.4375 C137.109,6.92708 137.344,7.58854 137.344,8.42188 C137.344,9.24479 137.099,9.90625 136.609,10.4063 C136.12,10.9063 135.469,11.1563 134.656,11.1563 C133.729,11.1563 133.021,10.7995 132.531,10.0859 C132.042,9.3724 131.797,8.34375 131.797,7 C131.797,5.72917 132.099,4.71615 132.703,3.96094 C133.307,3.20573 134.115,2.82813 135.125,2.82813 C135.396,2.82813 135.669,2.85677 135.945,2.91406 C136.221,2.97135 136.51,3.05208 136.813,3.15625 M139.375,10.0938 L141.156,10.0938 L141.156,3.96875 L139.219,4.35938 L139.219,3.375 L141.141,2.98438 L142.234,2.98438 L142.234,10.0938 L144,10.0938 L144,11 L139.375,11 L139.375,10.0938 M148.5,3.6875 C147.938,3.6875 147.516,3.96354 147.234,4.51563 C146.953,5.06771 146.813,5.89583 146.813,7 C146.813,8.09375 146.953,8.91667 147.234,9.46875 C147.516,10.0208 147.938,10.2969 148.5,10.2969 C149.063,10.2969 149.484,10.0208 149.766,9.46875 C150.047,8.91667 150.188,8.09375 150.188,7 C150.188,5.89583 150.047,5.06771 149.766,4.51563 C149.484,3.96354 149.063,3.6875 148.5,3.6875 M148.5,2.82813 C149.396,2.82813 150.081,3.1849 150.555,3.89844 C151.029,4.61198 151.266,5.64583 151.266,7 C151.266,8.34375 151.029,9.3724 150.555,10.0859 C150.081,10.7995 149.396,11.1563 148.5,11.1563 C147.604,11.1563 146.917,10.7995 146.438,10.0859 C145.958,9.3724 145.719,8.34375 145.719,7 C145.719,5.64583 145.958,4.61198 146.438,3.89844 C146.917,3.1849 147.604,2.82813 148.5,2.82813 M153.188,10.8281 L153.188,9.84375 C153.458,9.96875 153.734,10.0677 154.016,10.1406 C154.297,10.2135 154.573,10.25 154.844,10.25 C155.563,10.25 156.109,10.0078 156.484,9.52344 C156.859,9.03906 157.073,8.30729 157.125,7.32813 C156.917,7.63021 156.654,7.86458 156.336,8.03125 C156.018,8.19792 155.667,8.28125 155.281,8.28125 C154.479,8.28125 153.844,8.03906 153.375,7.55469 C152.906,7.07031 152.672,6.40625 152.672,5.5625 C152.672,4.73958 152.917,4.07813 153.406,3.57813 C153.896,3.07813 154.547,2.82813 155.359,2.82813 C156.286,2.82813 156.992,3.1849 157.477,3.89844 C157.961,4.61198 158.203,5.64583 158.203,7 C158.203,8.26042 157.904,9.26823 157.305,10.0234 C156.706,10.7786 155.901,11.1563 154.891,11.1563 C154.62,11.1563 154.344,11.1302 154.063,11.0781 C153.781,11.026 153.49,10.9427 153.188,10.8281 M155.359,7.4375 C155.839,7.4375 156.221,7.27083 156.508,6.9375 C156.794,6.60417 156.938,6.14583 156.938,5.5625 C156.938,4.98958 156.794,4.53385 156.508,4.19531 C156.221,3.85677 155.839,3.6875 155.359,3.6875 C154.87,3.6875 154.482,3.85677 154.195,4.19531 C153.909,4.53385 153.766,4.98958 153.766,5.5625 C153.766,6.14583 153.909,6.60417 154.195,6.9375 C154.482,7.27083 154.87,7.4375 155.359,7.4375 M162.469,7.1875 C161.948,7.1875 161.542,7.32552 161.25,7.60156 C160.958,7.8776 160.813,8.26042 160.813,8.75 C160.813,9.22917 160.958,9.60677 161.25,9.88281 C161.542,10.1589 161.948,10.2969 162.469,10.2969 C162.979,10.2969 163.383,10.1589 163.68,9.88281 C163.977,9.60677 164.125,9.22917 164.125,8.75 C164.125,8.26042 163.979,7.8776 163.688,7.60156 C163.396,7.32552 162.99,7.1875 162.469,7.1875 M161.375,6.73438 C160.917,6.61979 160.557,6.40365 160.297,6.08594 C160.036,5.76823 159.906,5.38021 159.906,4.92188 C159.906,4.27604 160.133,3.76563 160.586,3.39063 C161.039,3.01563 161.667,2.82813 162.469,2.82813 C163.26,2.82813 163.885,3.01563 164.344,3.39063 C164.802,3.76563 165.031,4.27604 165.031,4.92188 C165.031,5.38021 164.901,5.76823 164.641,6.08594 C164.38,6.40365 164.021,6.61979 163.563,6.73438 C164.083,6.84896 164.49,7.08333 164.781,7.4375 C165.073,7.79167 165.219,8.22917 165.219,8.75 C165.219,9.52083 164.982,10.1146 164.508,10.5313 C164.034,10.9479 163.354,11.1563 162.469,11.1563 C161.583,11.1563 160.904,10.9479 160.43,10.5313 C159.956,10.1146 159.719,9.52083 159.719,8.75 C159.719,8.22917 159.865,7.79167 160.156,7.4375 C160.448,7.08333 160.854,6.84896 161.375,6.73438 M160.984,5.01563 C160.984,5.43229 161.115,5.75781 161.375,5.99219 C161.635,6.22656 162,6.34375 162.469,6.34375 C162.927,6.34375 163.289,6.22656 163.555,5.99219 C163.82,5.75781 163.953,5.43229 163.953,5.01563 C163.953,4.59896 163.82,4.27344 163.555,4.03906 C163.289,3.80469 162.927,3.6875 162.469,3.6875 C162,3.6875 161.635,3.80469 161.375,4.03906 C161.115,4.27344 160.984,4.59896 160.984,5.01563 M167.156,10.8281 L167.156,9.84375 C167.427,9.96875 167.703,10.0677 167.984,10.1406 C168.266,10.2135 168.542,10.25 168.813,10.25 C169.531,10.25 170.078,10.0078 170.453,9.52344 C170.828,9.03906 171.042,8.30729 171.094,7.32813 C170.885,7.63021 170.622,7.86458 170.305,8.03125 C169.987,8.19792 169.635,8.28125 169.25,8.28125 C168.448,8.28125 167.813,8.03906 167.344,7.55469 C166.875,7.07031 166.641,6.40625 166.641,5.5625 C166.641,4.73958 166.885,4.07813 167.375,3.57813 C167.865,3.07813 168.516,2.82813 169.328,2.82813 C170.255,2.82813 170.961,3.1849 171.445,3.89844 C171.93,4.61198 172.172,5.64583 172.172,7 C172.172,8.26042 171.872,9.26823 171.273,10.0234 C170.674,10.7786 169.87,11.1563 168.859,11.1563 C168.589,11.1563 168.313,11.1302 168.031,11.0781 C167.75,11.026 167.458,10.9427 167.156,10.8281 M169.328,7.4375 C169.807,7.4375 170.19,7.27083 170.477,6.9375 C170.763,6.60417 170.906,6.14583 170.906,5.5625 C170.906,4.98958 170.763,4.53385 170.477,4.19531 C170.19,3.85677 169.807,3.6875 169.328,3.6875 C168.839,3.6875 168.451,3.85677 168.164,4.19531 C167.878,4.53385 167.734,4.98958 167.734,5.5625 C167.734,6.14583 167.878,6.60417 168.164,6.9375 C168.451,7.27083 168.839,7.4375 169.328,7.4375 M174.125,2.98438 L178.391,2.98438 L178.391,3.89063 L175.125,3.89063 L175.125,5.85938 C175.281,5.80729 175.438,5.76823 175.594,5.74219 C175.75,5.71615 175.906,5.70313 176.063,5.70313 C176.958,5.70313 177.667,5.94792 178.188,6.4375 C178.708,6.92708 178.969,7.58854 178.969,8.42188 C178.969,9.28646 178.701,9.95833 178.164,10.4375 C177.628,10.9167 176.87,11.1563 175.891,11.1563 C175.557,11.1563 175.216,11.1276 174.867,11.0703 C174.518,11.013 174.156,10.9271 173.781,10.8125 L173.781,9.71875 C174.104,9.89583 174.438,10.0286 174.781,10.1172 C175.125,10.2057 175.49,10.25 175.875,10.25 C176.5,10.25 176.992,10.0859 177.352,9.75781 C177.711,9.42969 177.891,8.98438 177.891,8.42188 C177.891,7.86979 177.711,7.42969 177.352,7.10156 C176.992,6.77344 176.5,6.60938 175.875,6.60938 C175.583,6.60938 175.294,6.64323 175.008,6.71094 C174.721,6.77865 174.427,6.88021 174.125,7.01563 L174.125,2.98438 M183.422,7.1875 C182.901,7.1875 182.495,7.32552 182.203,7.60156 C181.911,7.8776 181.766,8.26042 181.766,8.75 C181.766,9.22917 181.911,9.60677 182.203,9.88281 C182.495,10.1589 182.901,10.2969 183.422,10.2969 C183.932,10.2969 184.336,10.1589 184.633,9.88281 C184.93,9.60677 185.078,9.22917 185.078,8.75 C185.078,8.26042 184.932,7.8776 184.641,7.60156 C184.349,7.32552 183.943,7.1875 183.422,7.1875 M182.328,6.73438 C181.87,6.61979 181.51,6.40365 181.25,6.08594 C180.99,5.76823 180.859,5.38021 180.859,4.92188 C180.859,4.27604 181.086,3.76563 181.539,3.39063 C181.992,3.01563 182.62,2.82813 183.422,2.82813 C184.214,2.82813 184.839,3.01563 185.297,3.39063 C185.755,3.76563 185.984,4.27604 185.984,4.92188 C185.984,5.38021 185.854,5.76823 185.594,6.08594 C185.333,6.40365 184.974,6.61979 184.516,6.73438 C185.036,6.84896 185.443,7.08333 185.734,7.4375 C186.026,7.79167 186.172,8.22917 186.172,8.75 C186.172,9.52083 185.935,10.1146 185.461,10.5313 C184.987,10.9479 184.307,11.1563 183.422,11.1563 C182.536,11.1563 181.857,10.9479 181.383,10.5313 C180.909,10.1146 180.672,9.52083 180.672,8.75 C180.672,8.22917 180.818,7.79167 181.109,7.4375 C181.401,7.08333 181.807,6.84896 182.328,6.73438 M181.938,5.01563 C181.938,5.43229 182.068,5.75781 182.328,5.99219 C182.589,6.22656 182.953,6.34375 183.422,6.34375 C183.88,6.34375 184.242,6.22656 184.508,5.99219 C184.773,5.75781 184.906,5.43229 184.906,5.01563 C184.906,4.59896 184.773,4.27344 184.508,4.03906 C184.242,3.80469 183.88,3.6875 183.422,3.6875 C182.953,3.6875 182.589,3.80469 182.328,4.03906 C182.068,4.27344 181.938,4.59896 181.938,5.01563 M190.406,3.6875 C189.844,3.6875 189.422,3.96354 189.141,4.51563 C188.859,5.06771 188.719,5.89583 188.719,7 C188.719,8.09375 188.859,8.91667 189.141,9.46875 C189.422,10.0208 189.844,10.2969 190.406,10.2969 C190.969,10.2969 191.391,10.0208 191.672,9.46875 C191.953,8.91667 192.094,8.09375 192.094,7 C192.094,5.89583 191.953,5.06771 191.672,4.51563 C191.391,3.96354 190.969,3.6875 190.406,3.6875 M190.406,2.82813 C191.302,2.82813 191.987,3.1849 192.461,3.89844 C192.935,4.61198 193.172,5.64583 193.172,7 C193.172,8.34375 192.935,9.3724 192.461,10.0859 C191.987,10.7995 191.302,11.1563 190.406,11.1563 C189.51,11.1563 188.823,10.7995 188.344,10.0859 C187.865,9.3724 187.625,8.34375 187.625,7 C187.625,5.64583 187.865,4.61198 188.344,3.89844 C188.823,3.1849 189.51,2.82813 190.406,2.82813 M195.25,10.0938 L197.031,10.0938 L197.031,3.96875 L195.094,4.35938 L195.094,3.375 L197.016,2.98438 L198.109,2.98438 L198.109,10.0938 L199.875,10.0938 L199.875,11 L195.25,11 L195.25,10.0938 M202.234,10.0938 L204.016,10.0938 L204.016,3.96875 L202.078,4.35938 L202.078,3.375 L204,2.98438 L205.094,2.98438 L205.094,10.0938 L206.859,10.0938 L206.859,11 L202.234,11 L202.234,10.0938 M212.328,6.67188 C212.849,6.78646 213.255,7.01823 213.547,7.36719 C213.839,7.71615 213.984,8.15104 213.984,8.67188 C213.984,9.46354 213.711,10.0755 213.164,10.5078 C212.617,10.9401 211.844,11.1563 210.844,11.1563 C210.5,11.1563 210.151,11.1224 209.797,11.0547 C209.443,10.987 209.078,10.8906 208.703,10.7656 L208.703,9.70313 C209.005,9.88021 209.333,10.0156 209.688,10.1094 C210.042,10.2031 210.417,10.25 210.813,10.25 C211.49,10.25 212.005,10.1146 212.359,9.84375 C212.714,9.57292 212.891,9.18229 212.891,8.67188 C212.891,8.19271 212.727,7.82031 212.398,7.55469 C212.07,7.28906 211.609,7.15625 211.016,7.15625 L210.078,7.15625 L210.078,6.26563 L211.063,6.26563 C211.594,6.26563 212,6.15885 212.281,5.94531 C212.563,5.73177 212.703,5.42708 212.703,5.03125 C212.703,4.61458 212.557,4.29688 212.266,4.07813 C211.974,3.85938 211.557,3.75 211.016,3.75 C210.724,3.75 210.406,3.78125 210.063,3.84375 C209.719,3.90625 209.344,4.00521 208.938,4.14063 L208.938,3.17188 C209.354,3.05729 209.742,2.97135 210.102,2.91406 C210.461,2.85677 210.797,2.82813 211.109,2.82813 C211.932,2.82813 212.586,3.01563 213.07,3.39063 C213.555,3.76563 213.797,4.27604 213.797,4.92188 C213.797,5.35938 213.669,5.73177 213.414,6.03906 C213.159,6.34635 212.797,6.55729 212.328,6.67188 "/>
</g>

<g fill="none" stroke="#000000" stroke-opacity="1" stroke-width="1" stroke-linecap="square" stroke-linejoin="bevel" transform="matrix(1.99945,0,0,1.99945,162.075,21.9939)"
font-family="sans" font-size="11" font-weight="100" font-style="normal" 
>
</g>

<g fill="none" stroke="#000000" stroke-opacity="1" stroke-width="1" stroke-linecap="square" stroke-linejoin="bevel" transform="matrix(1.99945,0,0,1.99945,162.075,21.9939)"
font-family="Ubuntu" font-size="11" font-weight="400" font-style="normal" 
>
</g>

<g fill="none" stroke="#000000" stroke-opacity="1" stroke-width="1" stroke-linecap="square" stroke-linejoin="bevel" transform="matrix(1.99945,0,0,1.99945,0.00319912,71.9802)"
font-family="Ubuntu" font-size="11" font-weight="400" font-style="normal" 
>
</g>

<g fill="none" stroke="#000000" stroke-opacity="1" stroke-width="1" stroke-linecap="square" stroke-linejoin="bevel" transform="matrix(1.99945,0,0,1.99945,0.00319912,71.9802)"
font-family="Ubuntu" font-size="11" font-weight="400" font-style="normal" 
>
</g>

<g fill="none" stroke="#000000" stroke-opacity="1" stroke-width="1" stroke-linecap="square" stroke-linejoin="bevel" transform="matrix(1.99945,0,0,1.99945,0.00319912,71.9802)"
font-family="Ubuntu" font-size="11" font-weight="400" font-style="normal" 
>
</g>

<g fill="none" stroke="#000000" stroke-opacity="1" stroke-width="1" stroke-linecap="square" stroke-linejoin="round" transform="matrix(1.99945,0,0,1.99945,0.00319912,71.9802)"
font-family="Ubuntu" font-size="11" font-weight="400" font-style="normal" 
>
<path vector-effect="none" fill-rule="evenodd" d="M377.23,-18 C419.84,-18 465.04,-18 507.43,-18 "/>
</g>

<g fill="none" stroke="#000000" stroke-opacity="1" stroke-width="1" stroke-linecap="square" stroke-linejoin="bevel" transform="matrix(1.99945,0,0,1.99945,0.00319912,71.9802)"
font-family="Ubuntu" font-size="11" font-weight="400" font-style="normal" 
>
</g>

<g fill="none" stroke="#000000" stroke-opacity="1" stroke-width="1" stroke-linecap="square" stroke-linejoin="bevel" transform="matrix(1.99945,0,0,1.99945,796.521,6.99807)"
font-family="Ubuntu" font-size="11" font-weight="400" font-style="normal" 
>
</g>

<g fill="none" stroke="#000000" stroke-opacity="1" stroke-width="1" stroke-linecap="square" stroke-linejoin="bevel" transform="matrix(1.99945,0,0,1.99945,796.521,6.99807)"
font-family="sans" font-size="11" font-weight="100" font-style="normal" 
>
</g>

<g fill="#000000" fill-opacity="1" stroke="#000000" stroke-opacity="1" stroke-width="1" stroke-linecap="square" stroke-linejoin="round" transform="matrix(1.99945,0,0,1.99945,796.521,6.99807)"
font-family="sans" font-size="11" font-weight="100" font-style="normal" 
>
<path vector-effect="none" fill-rule="nonzero" d="M2.79688,2.98438 L3.70313,2.98438 L0.90625,12.0156 L0,12.0156 L2.79688,2.98438 M4.73438,4.98438 L5.73438,4.98438 L5.73438,11 L4.73438,11 L4.73438,4.98438 M4.73438,2.64063 L5.73438,2.64063 L5.73438,3.89063 L4.73438,3.89063 L4.73438,2.64063 M12.4688,6.14063 C12.7188,5.69271 13.0156,5.36458 13.3594,5.15625 C13.7031,4.94792 14.1094,4.84375 14.5781,4.84375 C15.2031,4.84375 15.6849,5.0625 16.0234,5.5 C16.362,5.9375 16.5313,6.5625 16.5313,7.375 L16.5313,11 L15.5313,11 L15.5313,7.40625 C15.5313,6.82292 15.4297,6.39323 15.2266,6.11719 C15.0234,5.84115 14.7135,5.70313 14.2969,5.70313 C13.7865,5.70313 13.3828,5.8724 13.0859,6.21094 C12.7891,6.54948 12.6406,7.01042 12.6406,7.59375 L12.6406,11 L11.6406,11 L11.6406,7.40625 C11.6406,6.82292 11.5391,6.39323 11.3359,6.11719 C11.1328,5.84115 10.8177,5.70313 10.3906,5.70313 C9.89063,5.70313 9.49219,5.8724 9.19531,6.21094 C8.89844,6.54948 8.75,7.01042 8.75,7.59375 L8.75,11 L7.75,11 L7.75,4.98438 L8.75,4.98438 L8.75,5.92188 C8.96875,5.54688 9.23698,5.27344 9.55469,5.10156 C9.8724,4.92969 10.2448,4.84375 10.6719,4.84375 C11.1094,4.84375 11.4818,4.95313 11.7891,5.17188 C12.0964,5.39063 12.3229,5.71354 12.4688,6.14063 M21.2188,7.96875 C20.4271,7.96875 19.8776,8.0625 19.5703,8.25 C19.263,8.4375 19.1094,8.75 19.1094,9.1875 C19.1094,9.53125 19.224,9.80729 19.4531,10.0156 C19.6823,10.224 19.9948,10.3281 20.3906,10.3281 C20.9427,10.3281 21.3828,10.1328 21.7109,9.74219 C22.0391,9.35156 22.2031,8.83854 22.2031,8.20313 L22.2031,7.96875 L21.2188,7.96875 M23.1875,7.5625 L23.1875,11 L22.2031,11 L22.2031,10.0938 C21.9844,10.4583 21.7057,10.7266 21.3672,10.8984 C21.0286,11.0703 20.6146,11.1563 20.125,11.1563 C19.5104,11.1563 19.0208,10.9844 18.6563,10.6406 C18.2917,10.2969 18.1094,9.83333 18.1094,9.25 C18.1094,8.57292 18.3359,8.0625 18.7891,7.71875 C19.2422,7.375 19.9219,7.20313 20.8281,7.20313 L22.2031,7.20313 L22.2031,7.10938 C22.2031,6.65104 22.0547,6.29688 21.7578,6.04688 C21.4609,5.79688 21.0417,5.67188 20.5,5.67188 C20.1563,5.67188 19.8203,5.71354 19.4922,5.79688 C19.1641,5.88021 18.849,6.00521 18.5469,6.17188 L18.5469,5.26563 C18.9115,5.11979 19.2656,5.01302 19.6094,4.94531 C19.9531,4.8776 20.2813,4.84375 20.5938,4.84375 C21.4688,4.84375 22.1198,5.06771 22.5469,5.51563 C22.974,5.96354 23.1875,6.64583 23.1875,7.5625 M29.1875,7.92188 C29.1875,7.20313 29.0391,6.64844 28.7422,6.25781 C28.4453,5.86719 28.0313,5.67188 27.5,5.67188 C26.9688,5.67188 26.5547,5.86719 26.2578,6.25781 C25.9609,6.64844 25.8125,7.20313 25.8125,7.92188 C25.8125,8.63021 25.9609,9.18229 26.2578,9.57813 C26.5547,9.97396 26.9688,10.1719 27.5,10.1719 C28.0313,10.1719 28.4453,9.97396 28.7422,9.57813 C29.0391,9.18229 29.1875,8.63021 29.1875,7.92188 M30.1719,10.25 C30.1719,11.2813 29.9453,12.0443 29.4922,12.5391 C29.0391,13.0339 28.3438,13.2813 27.4063,13.2813 C27.0521,13.2813 26.7214,13.2552 26.4141,13.2031 C26.1068,13.151 25.8073,13.0729 25.5156,12.9688 L25.5156,12.0156 C25.8073,12.1719 26.0938,12.2865 26.375,12.3594 C26.6563,12.4323 26.9479,12.4688 27.25,12.4688 C27.8958,12.4688 28.3802,12.2995 28.7031,11.9609 C29.026,11.6224 29.1875,11.1146 29.1875,10.4375 L29.1875,9.9375 C28.9792,10.2917 28.7161,10.5573 28.3984,10.7344 C28.0807,10.9115 27.6979,11 27.25,11 C26.5104,11 25.9167,10.7188 25.4688,10.1563 C25.0208,9.59375 24.7969,8.84896 24.7969,7.92188 C24.7969,6.99479 25.0208,6.25 25.4688,5.6875 C25.9167,5.125 26.5104,4.84375 27.25,4.84375 C27.6979,4.84375 28.0807,4.92969 28.3984,5.10156 C28.7161,5.27344 28.9792,5.53646 29.1875,5.89063 L29.1875,4.98438 L30.1719,4.98438 L30.1719,10.25 M37.3438,7.75 L37.3438,8.23438 L32.7969,8.23438 C32.8385,8.91146 33.0417,9.42708 33.4063,9.78125 C33.7708,10.1354 34.2813,10.3125 34.9375,10.3125 C35.3229,10.3125 35.6927,10.2656 36.0469,10.1719 C36.401,10.0781 36.7552,9.94271 37.1094,9.76563 L37.1094,10.6875 C36.7552,10.8438 36.3906,10.9609 36.0156,11.0391 C35.6406,11.1172 35.2656,11.1563 34.8906,11.1563 C33.9219,11.1563 33.1589,10.8776 32.6016,10.3203 C32.0443,9.76302 31.7656,9.00521 31.7656,8.04688 C31.7656,7.06771 32.0313,6.28906 32.5625,5.71094 C33.0938,5.13281 33.8125,4.84375 34.7188,4.84375 C35.5208,4.84375 36.1589,5.10417 36.6328,5.625 C37.1068,6.14583 37.3438,6.85417 37.3438,7.75 M36.3438,7.45313 C36.3438,6.91146 36.1953,6.47917 35.8984,6.15625 C35.6016,5.83333 35.2083,5.67188 34.7188,5.67188 C34.1667,5.67188 33.7266,5.82813 33.3984,6.14063 C33.0703,6.45313 32.8802,6.89063 32.8281,7.45313 L36.3438,7.45313 M43.5313,12.8281 L43.5313,13.5938 L37.8125,13.5938 L37.8125,12.8281 L43.5313,12.8281 M47.5,2.64063 L47.5,3.46875 L46.5625,3.46875 C46.2083,3.46875 45.9609,3.53906 45.8203,3.67969 C45.6797,3.82031 45.6094,4.07813 45.6094,4.45313 L45.6094,4.98438 L47.2344,4.98438 L47.2344,5.75 L45.6094,5.75 L45.6094,11 L44.625,11 L44.625,5.75 L43.6719,5.75 L43.6719,4.98438 L44.625,4.98438 L44.625,4.5625 C44.625,3.89583 44.7786,3.40885 45.0859,3.10156 C45.3932,2.79427 45.8854,2.64063 46.5625,2.64063 L47.5,2.64063 M51.7969,5.90625 C51.6927,5.84375 51.5755,5.79688 51.4453,5.76563 C51.3151,5.73438 51.1719,5.71875 51.0156,5.71875 C50.4531,5.71875 50.0234,5.90104 49.7266,6.26563 C49.4297,6.63021 49.2813,7.15104 49.2813,7.82813 L49.2813,11 L48.2813,11 L48.2813,4.98438 L49.2813,4.98438 L49.2813,5.92188 C49.4792,5.55729 49.7448,5.28646 50.0781,5.10938 C50.4115,4.93229 50.8177,4.84375 51.2969,4.84375 C51.3698,4.84375 51.4453,4.84635 51.5234,4.85156 C51.6016,4.85677 51.6927,4.86979 51.7969,4.89063 L51.7969,5.90625 M55.1719,5.67188 C54.6406,5.67188 54.2214,5.88021 53.9141,6.29688 C53.6068,6.71354 53.4531,7.28125 53.4531,8 C53.4531,8.71875 53.6042,9.28385 53.9063,9.69531 C54.2083,10.1068 54.6302,10.3125 55.1719,10.3125 C55.6927,10.3125 56.1068,10.1068 56.4141,9.69531 C56.7214,9.28385 56.875,8.71875 56.875,8 C56.875,7.28125 56.7214,6.71354 56.4141,6.29688 C56.1068,5.88021 55.6927,5.67188 55.1719,5.67188 M55.1719,4.84375 C56.026,4.84375 56.6979,5.1224 57.1875,5.67969 C57.6771,6.23698 57.9219,7.01042 57.9219,8 C57.9219,8.97917 57.6771,9.75 57.1875,10.3125 C56.6979,10.875 56.026,11.1563 55.1719,11.1563 C54.3073,11.1563 53.6302,10.875 53.1406,10.3125 C52.651,9.75 52.4063,8.97917 52.4063,8 C52.4063,7.01042 52.651,6.23698 53.1406,5.67969 C53.6302,5.1224 54.3073,4.84375 55.1719,4.84375 M64.2344,6.14063 C64.4844,5.69271 64.7813,5.36458 65.125,5.15625 C65.4688,4.94792 65.875,4.84375 66.3438,4.84375 C66.9688,4.84375 67.4505,5.0625 67.7891,5.5 C68.1276,5.9375 68.2969,6.5625 68.2969,7.375 L68.2969,11 L67.2969,11 L67.2969,7.40625 C67.2969,6.82292 67.1953,6.39323 66.9922,6.11719 C66.7891,5.84115 66.4792,5.70313 66.0625,5.70313 C65.5521,5.70313 65.1484,5.8724 64.8516,6.21094 C64.5547,6.54948 64.4063,7.01042 64.4063,7.59375 L64.4063,11 L63.4063,11 L63.4063,7.40625 C63.4063,6.82292 63.3047,6.39323 63.1016,6.11719 C62.8984,5.84115 62.5833,5.70313 62.1563,5.70313 C61.6563,5.70313 61.2578,5.8724 60.9609,6.21094 C60.6641,6.54948 60.5156,7.01042 60.5156,7.59375 L60.5156,11 L59.5156,11 L59.5156,4.98438 L60.5156,4.98438 L60.5156,5.92188 C60.7344,5.54688 61.0026,5.27344 61.3203,5.10156 C61.638,4.92969 62.0104,4.84375 62.4375,4.84375 C62.875,4.84375 63.2474,4.95313 63.5547,5.17188 C63.862,5.39063 64.0885,5.71354 64.2344,6.14063 M74.8281,12.8281 L74.8281,13.5938 L69.1094,13.5938 L69.1094,12.8281 L74.8281,12.8281 M80.0781,5.21875 L80.0781,6.14063 C79.8073,5.98438 79.5313,5.86719 79.25,5.78906 C78.9688,5.71094 78.6823,5.67188 78.3906,5.67188 C77.7552,5.67188 77.2604,5.875 76.9063,6.28125 C76.5521,6.6875 76.375,7.26042 76.375,8 C76.375,8.72917 76.5521,9.29688 76.9063,9.70313 C77.2604,10.1094 77.7552,10.3125 78.3906,10.3125 C78.6823,10.3125 78.9688,10.276 79.25,10.2031 C79.5313,10.1302 79.8073,10.0156 80.0781,9.85938 L80.0781,10.7656 C79.8073,10.901 79.5234,11 79.2266,11.0625 C78.9297,11.125 78.6146,11.1563 78.2813,11.1563 C77.375,11.1563 76.6563,10.8724 76.125,10.3047 C75.5938,9.73698 75.3281,8.96875 75.3281,8 C75.3281,7.02083 75.5964,6.25 76.1328,5.6875 C76.6693,5.125 77.4063,4.84375 78.3438,4.84375 C78.6563,4.84375 78.9557,4.875 79.2422,4.9375 C79.5286,5 79.8073,5.09375 80.0781,5.21875 M84.5313,7.96875 C83.7396,7.96875 83.1901,8.0625 82.8828,8.25 C82.5755,8.4375 82.4219,8.75 82.4219,9.1875 C82.4219,9.53125 82.5365,9.80729 82.7656,10.0156 C82.9948,10.224 83.3073,10.3281 83.7031,10.3281 C84.2552,10.3281 84.6953,10.1328 85.0234,9.74219 C85.3516,9.35156 85.5156,8.83854 85.5156,8.20313 L85.5156,7.96875 L84.5313,7.96875 M86.5,7.5625 L86.5,11 L85.5156,11 L85.5156,10.0938 C85.2969,10.4583 85.0182,10.7266 84.6797,10.8984 C84.3411,11.0703 83.9271,11.1563 83.4375,11.1563 C82.8229,11.1563 82.3333,10.9844 81.9688,10.6406 C81.6042,10.2969 81.4219,9.83333 81.4219,9.25 C81.4219,8.57292 81.6484,8.0625 82.1016,7.71875 C82.5547,7.375 83.2344,7.20313 84.1406,7.20313 L85.5156,7.20313 L85.5156,7.10938 C85.5156,6.65104 85.3672,6.29688 85.0703,6.04688 C84.7734,5.79688 84.3542,5.67188 83.8125,5.67188 C83.4688,5.67188 83.1328,5.71354 82.8047,5.79688 C82.4766,5.88021 82.1615,6.00521 81.8594,6.17188 L81.8594,5.26563 C82.224,5.11979 82.5781,5.01302 82.9219,4.94531 C83.2656,4.8776 83.5938,4.84375 83.9063,4.84375 C84.7813,4.84375 85.4323,5.06771 85.8594,5.51563 C86.2865,5.96354 86.5,6.64583 86.5,7.5625 M93.2188,6.14063 C93.4688,5.69271 93.7656,5.36458 94.1094,5.15625 C94.4531,4.94792 94.8594,4.84375 95.3281,4.84375 C95.9531,4.84375 96.4349,5.0625 96.7734,5.5 C97.112,5.9375 97.2813,6.5625 97.2813,7.375 L97.2813,11 L96.2813,11 L96.2813,7.40625 C96.2813,6.82292 96.1797,6.39323 95.9766,6.11719 C95.7734,5.84115 95.4635,5.70313 95.0469,5.70313 C94.5365,5.70313 94.1328,5.8724 93.8359,6.21094 C93.5391,6.54948 93.3906,7.01042 93.3906,7.59375 L93.3906,11 L92.3906,11 L92.3906,7.40625 C92.3906,6.82292 92.2891,6.39323 92.0859,6.11719 C91.8828,5.84115 91.5677,5.70313 91.1406,5.70313 C90.6406,5.70313 90.2422,5.8724 89.9453,6.21094 C89.6484,6.54948 89.5,7.01042 89.5,7.59375 L89.5,11 L88.5,11 L88.5,4.98438 L89.5,4.98438 L89.5,5.92188 C89.7188,5.54688 89.987,5.27344 90.3047,5.10156 C90.6224,4.92969 90.9948,4.84375 91.4219,4.84375 C91.8594,4.84375 92.2318,4.95313 92.5391,5.17188 C92.8464,5.39063 93.0729,5.71354 93.2188,6.14063 "/>
</g>

<g fill="none" stroke="#000000" stroke-opacity="1" stroke-width="1" stroke-linecap="square" stroke-linejoin="bevel" transform="matrix(1.99945,0,0,1.99945,796.521,6.99807)"
font-family="sans" font-size="11" font-weight="100" font-style="normal" 
>
</g>

<g fill="none" stroke="#000000" stroke-opacity="1" stroke-width="1" stroke-linecap="square" stroke-linejoin="bevel" transform="matrix(1.99945,0,0,1.99945,796.521,6.99807)"
font-family="Ubuntu" font-size="11" font-weight="400" font-style="normal" 
>
</g>

<g fill="none" stroke="#000000" stroke-opacity="1" stroke-width="1" stroke-linecap="square" stroke-linejoin="bevel" transform="matrix(1.99945,0,0,1.99945,0.00319912,71.9802)"
font-family="Ubuntu" font-size="11" font-weight="400" font-style="normal" 
>
</g>

<g fill="#000000" fill-opacity="1" stroke="#000000" stroke-opacity="1" stroke-width="1" stroke-linecap="square" stroke-linejoin="round" transform="matrix(1.99945,0,0,1.99945,0.00319912,71.9802)"
font-family="Ubuntu" font-size="11" font-weight="400" font-style="normal" 
>
<path vector-effect="none" fill-rule="evenodd" d="M507.43,-18 L507.43,-14.451 L517.57,-18 L507.43,-21.549 L507.43,-18"/>
</g>

<g fill="none" stroke="#000000" stroke-opacity="1" stroke-width="1" stroke-linecap="square" stroke-linejoin="bevel" transform="matrix(1.99945,0,0,1.99945,0.00319912,71.9802)"
font-family="Ubuntu" font-size="11" font-weight="400" font-style="normal" 
>
</g>

<g fill="none" stroke="#000000" stroke-opacity="1" stroke-width="1" stroke-linecap="square" stroke-linejoin="bevel" transform="matrix(1,0,0,1,0,0)"
font-family="Ubuntu" font-size="11" font-weight="400" font-style="normal" 
>
</g>
</g>
</svg>
